Screenshot 
http://s20.postimage.org/xfzp72zfx/Je_Deshe_Khokababu_2012_Bengali_Movie_Youtub.jpg


Wiki 
http://en.wikipedia.org/wiki/Khokababu


Media Info:

General
Format : Matroska
Format version : Version 2
File size : 147 MiB
Duration : 3mn 57s
Overall bit rate mode : Variable
Overall bit rate : 5 193 Kbps
Writing application : Lavf54.61.104
Writing library : Lavf54.61.104

Video
ID : 1
Format : AVC
Format/Info : Advanced Video Codec
Format profile : High@L4.1
Format settings, CABAC : Yes
Format settings, ReFrames : 2 frames
Codec ID : V_MPEG4/ISO/AVC
Duration : 3mn 57s
Bit rate mode : Variable
Bit rate : 5 000 Kbps
Maximum bit rate : 24.0 Mbps
Width : 1 920 pixels
Height : 1 080 pixels
Display aspect ratio : 2.2:1
Frame rate mode : Constant
Frame rate : 24.000 fps
Color space : YUV
Chroma subsampling : 4:2:0
Bit depth : 8 bits
Scan type : Progressive
Bits/(Pixel*Frame) : 0.100
Stream size : 139 MiB (94%)
Writing library : x264 core 129 r2230
Default : Yes
Forced : No

Audio
ID : 2
Format : AC-3
Format/Info : Audio Coding 3
Mode extension : CM (complete main)
Format settings, Endianness : Big
Codec ID : A_AC3
Duration : 3mn 57s
Bit rate mode : Constant
Bit rate : 192 Kbps
Channel(s) : 2 channels
Channel positions : Front: L R
Sampling rate : 48.0 KHz
Bit depth : 16 bits
Compression mode : Lossy
Delay relative to video : 1mn 5s
Stream size : 5.44 MiB (4%)
Default : Yes
Forced : No